<?xml version="1.0" encoding="UTF-8" standalone="no"?>
<!-- Created with Inkscape (http://www.inkscape.org/) -->

<svg
   width="62.591999mm"
   height="62.591999mm"
   viewBox="0 0 62.591999 62.591999"
   version="1.1"
   id="svg1"
   xml:space="preserve"
   inkscape:version="1.3 (0e150ed6c4, 2023-07-21)"
   sodipodi:docname="icono.svg"
   inkscape:export-filename="icono.png"
   inkscape:export-xdpi="300"
   inkscape:export-ydpi="300"
   xmlns:inkscape="http://www.inkscape.org/namespaces/inkscape"
   xmlns:sodipodi="http://sodipodi.sourceforge.net/DTD/sodipodi-0.dtd"
   xmlns="http://www.w3.org/2000/svg"
   xmlns:svg="http://www.w3.org/2000/svg"><sodipodi:namedview
     id="namedview1"
     pagecolor="#ffffff"
     bordercolor="#000000"
     borderopacity="0.25"
     inkscape:showpageshadow="2"
     inkscape:pageopacity="0.0"
     inkscape:pagecheckerboard="0"
     inkscape:deskcolor="#d1d1d1"
     inkscape:document-units="mm"
     inkscape:zoom="0.90917622"
     inkscape:cx="222.17915"
     inkscape:cy="167.18431"
     inkscape:window-width="1920"
     inkscape:window-height="992"
     inkscape:window-x="-8"
     inkscape:window-y="-8"
     inkscape:window-maximized="1"
     inkscape:current-layer="layer1" /><defs
     id="defs1" /><g
     inkscape:label="Capa 1"
     inkscape:groupmode="layer"
     id="layer1"
     transform="translate(-52.685991,-36.741274)"><path
       style="fill:#000000"
       d="m 78.760396,97.697941 c -9.29828,-1.36645 -16.924129,-6.17936 -21.845883,-13.78761 -3.392497,-5.24427 -4.895572,-12.25036 -3.950968,-18.41615 1.917678,-12.5174 10.466319,-22.02202 22.839891,-25.39403 2.40904,-0.65651 2.97284,-0.70663 8.01528,-0.71258 5.106,-0.006 5.58385,0.0366 8.15157,0.72705 7.68769,2.06718 14.306324,6.60914 18.525204,12.71272 6.73583,9.74494 6.32448,22.8377 -1.02766,32.7085 -2.91892,3.91886 -6.7502,7.05118 -11.196884,9.15416 -5.74053,2.71489 -13.4338,3.90096 -19.51055,3.00794 z m 9.8267,-3.81931 c 6.11113,-1.28552 12.345274,-4.57527 15.571504,-8.21707 3.13582,-3.53975 5.58436,-7.9354 6.69688,-12.02232 0.88721,-3.25925 0.88371,-8.79266 -0.007,-11.63027 -3.1964,-10.17891 -12.947744,-17.97555 -24.203974,-19.35217 -7.98654,-0.97674 -16.64214,2.28304 -22.47226,8.46328 -10.143469,10.75261 -9.967519,26.0126 0.410902,35.63716 2.208075,2.04768 5.198068,4.13299 7.187658,5.01288 1.66364,0.73575 5.31796,1.8604 7.15348,2.20155 2.15417,0.40039 7.56517,0.34829 9.66317,-0.093 z m -9.2663,-0.82627 c -8.01766,-1.57562 -13.371253,-5.13978 -17.907959,-11.92223 -2.330379,-3.48395 -3.339938,-6.5511 -3.706657,-11.2612 -0.13151,-1.6891 -0.09197,-2.05052 0.224363,-2.05052 0.244119,0 0.606642,0.69879 0.995144,1.91823 1.469014,4.61095 3.370836,7.77355 6.404043,10.64948 3.320386,3.14821 6.653336,5.00566 11.237166,6.26245 3.0918,0.8477 8.93459,0.85711 11.82686,0.019 6.71983,-1.94716 12.657414,-7.11669 14.523774,-12.64504 0.79146,-2.34438 1.33548,-6.11277 1.14034,-7.89902 -0.86555,-7.92293 -4.526654,-13.7194 -10.680374,-16.90983 -6.37915,-3.30731 -12.66728,-3.36507 -19.31545,-0.17742 -1.83854,0.88153 -2.61602,1.47021 -4.56411,3.45576 -2.564041,2.61334 -3.992172,5.08178 -4.887178,8.44719 -0.63503,2.38785 -0.579511,5.97845 0.126822,8.20208 2.087917,6.57305 9.025316,11.84878 16.236596,12.34755 2.37605,0.16435 5.89918,-0.3607 8.14411,-1.21371 1.67129,-0.63504 5.09502,-3.02626 6.2524,-4.36685 0.81193,-0.94043 2.47094,-3.80713 2.47094,-4.26966 0,-0.09 -0.4558,0.41264 -1.0129,1.11694 -3.86154,4.88183 -7.68148,7.01543 -13.25676,7.40445 -4.0749,0.28433 -8.6513,-1.09906 -11.70626,-3.53864 -3.882188,-3.10019 -6.27236,-8.28888 -5.944247,-12.90403 0.315991,-4.44466 1.656063,-7.3896 4.806777,-10.56335 2.10032,-2.11569 3.97252,-3.20915 7.26964,-4.24589 7.08736,-2.22853 14.1548,-0.36839 19.34935,5.09273 3.333104,3.50414 4.723954,6.92285 4.921774,12.09776 0.23068,6.03434 -1.06888,9.50056 -5.067714,13.51675 -2.60515,2.61646 -4.63869,3.9199 -7.78526,4.99011 -5.30856,1.80556 -12.28331,1.3084 -17.37127,-1.23822 -7.904512,-3.95636 -12.769099,-12.15416 -11.817286,-19.91448 0.684274,-5.57902 3.634176,-11.03212 7.819516,-14.45494 3.81372,-3.1189 10.7379,-5.52128 15.90402,-5.51799 11.41424,0.007 21.118734,7.5869 23.125824,18.06228 l 0.46747,2.43982 0.1783,-1.71979 c 0.0981,-0.94589 0.20692,-2.25558 0.2419,-2.91042 l 0.0636,-1.19062 0.8452,1.28539 c 2.86448,4.35637 2.04213,14.40808 -1.68552,20.60236 -2.85818,4.74947 -5.91004,7.57644 -10.801344,10.00537 -4.47045,2.21994 -7.32443,2.91664 -12.43542,3.03568 -2.18281,0.0508 -4.26641,0.0339 -4.63021,-0.0376 z m 8.56833,-17.06113 c 3.65068,-1.21856 6.63881,-3.53541 8.87101,-6.87815 1.26639,-1.89644 1.54482,-3.35762 1.10014,-5.77339 -0.98836,-5.36942 -5.45825,-9.7997 -11.39573,-11.29477 -7.43195,-1.87137 -16.0452,3.86095 -16.58682,11.03893 -0.29265,3.87852 0.95165,7.10029 3.75511,9.72279 3.85858,3.60952 9.325,4.83062 14.25629,3.18459 z m -8.45985,-1.64669 c -3.28033,-1.08703 -5.2004,-2.79004 -6.66115,-5.90809 -0.64414,-1.37496 -0.72337,-1.84837 -0.72337,-4.32221 0,-2.32908 0.097,-2.98855 0.60037,-4.07996 1.28743,-2.79165 3.72447,-4.88799 6.95453,-5.98226 1.44834,-0.49067 2.1285,-0.56081 4.51061,-0.46514 2.55515,0.10262 2.98495,0.19806 4.82335,1.07112 2.60005,1.23475 4.438,2.95742 5.53688,5.18956 0.80982,1.64496 0.85759,1.90446 0.85759,4.65799 0,2.66016 -0.0652,3.04873 -0.74303,4.4291 -0.99295,2.02204 -3.38483,4.17573 -5.69822,5.13075 -1.47971,0.61087 -2.22548,0.7408 -4.67125,0.81385 -2.49555,0.0745 -3.17781,-0.002 -4.78631,-0.53471 z m -2.48443,-13.01116 c 1.39926,-0.72359 1.71375,-1.97447 0.66858,-2.65929 -0.60034,-0.39336 -0.7087,-0.39003 -1.444,0.0443 -0.43722,0.25828 -0.94062,0.82126 -1.11865,1.25107 -0.29128,0.70321 -0.26297,0.83065 0.28268,1.27249 0.72922,0.59049 0.65446,0.58625 1.61139,0.0914 z"
       id="path1"
       sodipodi:nodetypes="sssscssssscsscssssscccsssssscsssssssssssssssssssssssscsccscssscccssssssscsscssssscscccsssscc" /></g></svg>
